<svg width="378" height="383" viewBox="0 0 378 383" fill="none" xmlns="http://www.w3.org/2000/svg">
<g opacity="0.93">
<path d="M190.013 382.416C245.919 382.416 291.24 378.442 291.24 373.539C291.24 368.636 245.919 364.661 190.013 364.661C134.107 364.661 88.7856 368.636 88.7856 373.539C88.7856 378.442 134.107 382.416 190.013 382.416Z" fill="#1C1B2E"/>
<path d="M268.375 92.3405V68.2045H246.318C244.8 60.8778 241.905 53.9058 237.787 47.6588L253.392 32.045L236.33 14.9828L220.716 30.5876C214.469 26.4694 207.497 23.5745 200.17 22.0565V0H176.034V22.0565C168.717 23.5771 161.754 26.472 155.515 30.5876L139.866 14.9828L122.804 32.045L138.408 47.6588C134.293 53.9063 131.401 60.8783 129.886 68.2045H107.821V92.3405H129.886C131.404 99.6577 134.296 106.62 138.408 112.86L122.804 128.473L139.866 145.536L155.515 129.966C161.765 134.083 168.74 136.975 176.07 138.489V160.554H200.206V138.489C207.532 136.974 214.504 134.082 220.752 129.966L236.365 145.571L253.428 128.509L237.787 112.86C241.907 106.61 244.802 99.635 246.318 92.305L268.375 92.3405ZM188.102 111.758C181.875 111.759 175.786 109.914 170.608 106.456C165.429 102.997 161.392 98.0805 159.007 92.3275C156.623 86.5745 155.998 80.2436 157.212 74.1355C158.426 68.0274 161.424 62.4165 165.827 58.0123C170.23 53.6081 175.84 50.6086 181.948 49.393C188.055 48.1774 194.386 48.8004 200.14 51.1832C205.894 53.566 210.812 57.6015 214.272 62.7794C217.732 67.9573 219.578 74.045 219.578 80.2725C219.578 88.6214 216.263 96.6284 210.36 102.533C204.457 108.437 196.451 111.755 188.102 111.758Z" fill="#474469"/>
<g opacity="0.4">
<path d="M86.2173 304.117H84.8843" stroke="white" stroke-miterlimit="10"/>
<path d="M82.1564 304.117H23.4961" stroke="white" stroke-miterlimit="10" stroke-dasharray="3.07 3.07"/>
<path d="M22.1274 304.117H20.7944V302.784" stroke="white" stroke-miterlimit="10"/>
<path d="M20.7944 300.082V177.438" stroke="white" stroke-miterlimit="10" stroke-dasharray="3.03 3.03"/>
<path d="M20.7944 176.088V174.755H22.1274" stroke="white" stroke-miterlimit="10"/>
<path d="M24.7847 174.755H182.522" stroke="white" stroke-miterlimit="10" stroke-dasharray="2.98 2.98"/>
<path d="M183.854 174.755H185.187V173.422" stroke="white" stroke-miterlimit="10"/>
<path d="M185.188 170.72V90.9897" stroke="white" stroke-miterlimit="10" stroke-dasharray="3.04 3.04"/>
<path d="M185.188 89.639V88.306" stroke="white" stroke-miterlimit="10"/>
</g>
<g opacity="0.4">
<path d="M288.609 318.335H289.942" stroke="white" stroke-miterlimit="10"/>
<path d="M292.671 318.335H351.331" stroke="white" stroke-miterlimit="10" stroke-dasharray="3.07 3.07"/>
<path d="M352.7 318.335H354.033V317.002" stroke="white" stroke-miterlimit="10"/>
<path d="M354.033 314.301V191.657" stroke="white" stroke-miterlimit="10" stroke-dasharray="3.03 3.03"/>
<path d="M354.033 190.306V188.973H352.7" stroke="white" stroke-miterlimit="10"/>
<path d="M350.043 188.973H192.297" stroke="white" stroke-miterlimit="10" stroke-dasharray="2.98 2.98"/>
<path d="M190.973 188.973H189.64V187.64" stroke="white" stroke-miterlimit="10"/>
<path d="M189.64 184.939V105.208" stroke="white" stroke-miterlimit="10" stroke-dasharray="3.04 3.04"/>
<path d="M189.64 103.858V102.525" stroke="white" stroke-miterlimit="10"/>
</g>
<path d="M240.435 49.1428H135.76C132.315 49.1428 129.522 51.9358 129.522 55.3812V108.061C129.522 111.506 132.315 114.299 135.76 114.299H240.435C243.881 114.299 246.674 111.506 246.674 108.061V55.3812C246.674 51.9358 243.881 49.1428 240.435 49.1428Z" fill="#6B24B9"/>
<path d="M242.693 59.8867H133.512V110.14H242.693V59.8867Z" fill="#C2A0FF"/>
<path d="M182.282 67.5114H138.018V69.2442H182.282V67.5114Z" fill="#FFC154"/>
<path d="M182.282 71.6703H138.018V73.4032H182.282V71.6703Z" fill="#FFC154"/>
<path d="M182.282 75.8292H138.018V77.5621H182.282V75.8292Z" fill="#FFC154"/>
<path d="M182.282 79.9882H138.018V81.721H182.282V79.9882Z" fill="#FFC154"/>
<path d="M182.282 84.1471H138.018V85.88H182.282V84.1471Z" fill="#FFC154"/>
<path d="M160.154 91.6029H138.018V93.3358H160.154V91.6029Z" fill="#FFC154"/>
<path d="M160.154 94.4911H138.018V96.224H160.154V94.4911Z" fill="#FFC154"/>
<path d="M160.154 97.3881H138.018V99.1209H160.154V97.3881Z" fill="#FFC154"/>
<path d="M160.154 100.276H138.018V102.009H160.154V100.276Z" fill="#FFC154"/>
<path d="M138.018 56.7675C138.926 56.7675 139.662 56.0314 139.662 55.1234C139.662 54.2155 138.926 53.4794 138.018 53.4794C137.11 53.4794 136.374 54.2155 136.374 55.1234C136.374 56.0314 137.11 56.7675 138.018 56.7675Z" fill="#FFC154"/>
<path d="M146.682 55.0968C146.684 55.4245 146.588 55.7453 146.407 56.0184C146.226 56.2916 145.968 56.5048 145.666 56.631C145.363 56.7573 145.03 56.7907 144.709 56.7272C144.387 56.6637 144.092 56.5061 143.86 56.2744C143.628 56.0427 143.471 55.7474 143.407 55.426C143.344 55.1045 143.377 54.7714 143.503 54.469C143.63 54.1666 143.843 53.9086 144.116 53.7276C144.389 53.5467 144.71 53.451 145.038 53.4528C145.474 53.4528 145.892 53.626 146.2 53.9343C146.509 54.2426 146.682 54.6608 146.682 55.0968Z" fill="#FFC154"/>
<path d="M152.049 56.7675C152.957 56.7675 153.693 56.0314 153.693 55.1234C153.693 54.2155 152.957 53.4794 152.049 53.4794C151.141 53.4794 150.405 54.2155 150.405 55.1234C150.405 56.0314 151.141 56.7675 152.049 56.7675Z" fill="#FFC154"/>
<path d="M207.679 65.0853H191.737V103.902H207.679V65.0853Z" fill="#342F50"/>
<path d="M230.9 66.1251H214.958V85.5334H230.9V66.1251Z" fill="#342F50"/>
<path d="M230.9 88.306H214.958V102.409H230.9V88.306Z" fill="#FFC154"/>
<path d="M57.4695 207.813V199.175H49.5694C49.0289 196.551 47.9945 194.054 46.5213 191.817L52.1021 186.227L45.997 180.122L40.4073 185.73C38.17 184.256 35.6729 183.222 33.0492 182.682V174.781H24.4115V182.682C21.7882 183.224 19.2915 184.258 17.0534 185.73L11.4726 180.149L5.33195 186.227L10.9216 191.817C9.44472 194.052 8.41002 196.55 7.87351 199.175H0V207.813H7.90018C8.43836 210.437 9.47293 212.935 10.9483 215.171L5.33195 220.752L11.4459 226.866L17.0534 221.276C19.2896 222.751 21.787 223.786 24.4115 224.324V232.224H33.0492V224.324C35.6742 223.788 38.1719 222.753 40.4073 221.276L45.997 226.866L52.1021 220.752L46.5213 215.171C47.993 212.933 49.0272 210.436 49.5694 207.813H57.4695ZM28.7303 214.762C26.5009 214.764 24.3211 214.104 22.4667 212.867C20.6123 211.629 19.1667 209.87 18.3127 207.81C17.4587 205.751 17.2348 203.484 17.6693 201.298C18.1038 199.111 19.1772 197.103 20.7536 195.526C22.3301 193.95 24.3387 192.876 26.5253 192.442C28.712 192.007 30.9783 192.231 33.0377 193.085C35.0971 193.939 36.8568 195.385 38.0943 197.239C39.3318 199.094 39.9914 201.273 39.9896 203.503C39.9873 206.488 38.8003 209.351 36.6893 211.462C34.5782 213.573 31.7158 214.76 28.7303 214.762Z" fill="#474469"/>
<path d="M28.7303 209.528C32.0628 209.528 34.7643 206.826 34.7643 203.494C34.7643 200.161 32.0628 197.46 28.7303 197.46C25.3978 197.46 22.6963 200.161 22.6963 203.494C22.6963 206.826 25.3978 209.528 28.7303 209.528Z" fill="#474469"/>
<path d="M73.8651 155.515V151.898H70.5593C70.3466 150.786 69.9244 149.725 69.3151 148.77L71.6523 146.433L69.093 143.874L66.7558 146.211C65.8175 145.594 64.7713 145.16 63.6722 144.931V141.625H60.0109V144.931C58.9145 145.16 57.8712 145.594 56.9361 146.211L54.5901 143.874L52.0307 146.433L54.3768 148.77C53.7565 149.707 53.3221 150.754 53.0971 151.854H49.7646V155.515H53.0793C53.3043 156.616 53.7388 157.663 54.359 158.599L52.013 160.936L54.5723 163.504L56.9184 161.158C57.8535 161.775 58.8967 162.209 59.9931 162.438V165.744H63.6188V162.438C64.718 162.209 65.7642 161.775 66.7025 161.158L69.0397 163.504L71.599 160.936L69.3151 158.554C69.9141 157.627 70.336 156.596 70.5593 155.515H73.8651ZM61.8237 158.43C60.8879 158.432 59.9727 158.156 59.1939 157.637C58.415 157.118 57.8077 156.38 57.4488 155.516C57.0898 154.651 56.9955 153.7 57.1776 152.782C57.3597 151.864 57.8102 151.021 58.4719 150.359C59.1336 149.698 59.9768 149.247 60.8947 149.065C61.8126 148.883 62.7639 148.977 63.6282 149.336C64.4924 149.695 65.2307 150.303 65.7495 151.081C66.2683 151.86 66.5443 152.775 66.5425 153.711C66.5308 154.955 66.0285 156.144 65.1448 157.019C64.2611 157.895 63.0676 158.386 61.8237 158.386V158.43Z" fill="#474469"/>
<path d="M61.8242 156.2C63.2229 156.2 64.3569 155.066 64.3569 153.667C64.3569 152.268 63.2229 151.134 61.8242 151.134C60.4254 151.134 59.2915 152.268 59.2915 153.667C59.2915 155.066 60.4254 156.2 61.8242 156.2Z" fill="#474469"/>
<g opacity="0.63">
<path d="M107.43 54.1459V44.1485H98.2946C97.6604 41.1082 96.4541 38.2162 94.74 35.6263L101.209 29.1569L94.1002 22.0476L87.6307 28.517C85.0448 26.8016 82.1554 25.5952 79.1174 24.9624V15.8803H69.1733V25.0246C66.1353 25.6574 63.2459 26.8638 60.66 28.5792L54.2083 22.092L47.099 29.2013L53.5685 35.6707C51.8543 38.2606 50.648 41.1527 50.0138 44.193H40.8784V54.1459H50.0494C50.6836 57.1835 51.8899 60.0726 53.604 62.6593L47.099 69.1287L54.2083 76.238L60.6777 69.7686C63.2635 71.4844 66.153 72.6908 69.1911 73.3232V82.4053H79.1707V73.261C82.2088 72.6286 85.0983 71.4221 87.6841 69.7064L94.1979 76.2024L101.307 69.0932L94.8378 62.6237C96.5518 60.0371 97.7581 57.1479 98.3924 54.1104L107.43 54.1459ZM74.1765 62.2061C71.5967 62.2078 69.0743 61.4447 66.9282 60.0131C64.7821 58.5815 63.1086 56.5457 62.1194 54.1631C61.1301 51.7806 60.8694 49.1582 61.3704 46.6275C61.8713 44.0968 63.1113 41.7715 64.9336 39.9454C66.7559 38.1194 69.0787 36.8746 71.6084 36.3686C74.138 35.8625 76.7609 36.1178 79.1455 37.1022C81.5301 38.0866 83.5693 39.7559 85.0053 41.899C86.4412 44.0422 87.2096 46.563 87.2131 49.1428C87.2154 50.8567 86.88 52.5543 86.226 54.1385C85.572 55.7227 84.6122 57.1626 83.4016 58.3757C82.1909 59.5889 80.753 60.5516 79.1701 61.2088C77.5872 61.866 75.8904 62.2049 74.1765 62.2061Z" fill="#6B24B9"/>
<path d="M74.1763 56.1277C78.0339 56.1277 81.1611 53.0004 81.1611 49.1428C81.1611 45.2852 78.0339 42.158 74.1763 42.158C70.3186 42.158 67.1914 45.2852 67.1914 49.1428C67.1914 53.0004 70.3186 56.1277 74.1763 56.1277Z" fill="#6B24B9"/>
</g>
<g opacity="0.35">
<path d="M303.148 133.868V127.22H297.07C296.653 125.202 295.857 123.281 294.723 121.56L299.025 117.258L294.324 112.557L290.022 116.859C288.301 115.725 286.38 114.929 284.362 114.513V108.416H277.715V114.495C275.696 114.911 273.775 115.707 272.054 116.841L267.753 112.54L263.043 117.303L267.344 121.604C266.21 123.325 265.414 125.246 264.998 127.265H258.919V133.912H264.998C265.414 135.93 266.21 137.851 267.344 139.573L263.043 143.829L267.744 148.53L272.045 144.229C273.766 145.363 275.687 146.159 277.706 146.575V152.654H284.371V146.575C286.389 146.159 288.31 145.363 290.031 144.229L294.332 148.53L299.033 143.829L294.723 139.519C295.857 137.798 296.653 135.877 297.07 133.859L303.148 133.868ZM281.038 139.199C279.322 139.201 277.643 138.694 276.215 137.741C274.787 136.788 273.674 135.433 273.017 133.847C272.36 132.262 272.188 130.516 272.523 128.833C272.858 127.149 273.685 125.603 274.899 124.39C276.114 123.177 277.661 122.351 279.345 122.018C281.029 121.685 282.774 121.858 284.359 122.517C285.944 123.176 287.298 124.291 288.249 125.72C289.2 127.148 289.706 128.827 289.703 130.544C289.703 132.843 288.79 135.047 287.165 136.674C285.541 138.3 283.337 139.215 281.038 139.217V139.199Z" fill="#FFC154"/>
<path d="M285.686 130.544C285.686 131.463 285.413 132.362 284.903 133.126C284.392 133.89 283.666 134.486 282.817 134.838C281.968 135.19 281.033 135.282 280.132 135.102C279.23 134.923 278.402 134.48 277.752 133.83C277.102 133.18 276.659 132.352 276.48 131.451C276.301 130.549 276.393 129.615 276.744 128.765C277.096 127.916 277.692 127.19 278.456 126.68C279.221 126.169 280.119 125.896 281.038 125.896C282.271 125.896 283.453 126.386 284.325 127.258C285.196 128.129 285.686 129.311 285.686 130.544Z" fill="#FFC154"/>
</g>
<path d="M327.808 207.813C328.354 210.437 329.391 212.933 330.865 215.171L325.249 220.752L331.363 226.866L336.944 221.276C339.18 222.751 341.677 223.786 344.302 224.324V232.224H352.94V224.324C355.564 223.788 358.062 222.753 360.298 221.276L365.887 226.866L371.992 220.752L366.412 215.171C367.883 212.933 368.918 210.436 369.46 207.813H377.36V199.175H369.46C368.919 196.551 367.885 194.054 366.412 191.817L371.992 186.227L365.887 180.122L360.324 185.73C358.087 184.256 355.59 183.222 352.966 182.682V174.781H344.328V182.682C341.705 183.224 339.208 184.258 336.97 185.73L331.39 180.149L325.249 186.227L330.839 191.817C329.363 194.054 328.325 196.551 327.782 199.175H319.917V207.813H327.808ZM337.379 203.503C337.379 201.274 338.04 199.096 339.278 197.243C340.516 195.39 342.276 193.945 344.335 193.092C346.394 192.24 348.66 192.016 350.846 192.451C353.031 192.886 355.039 193.959 356.615 195.535C358.191 197.111 359.264 199.119 359.699 201.305C360.134 203.49 359.911 205.756 359.058 207.815C358.205 209.874 356.761 211.634 354.908 212.872C353.055 214.11 350.876 214.771 348.647 214.771C345.659 214.771 342.793 213.584 340.68 211.471C338.566 209.357 337.379 206.491 337.379 203.503Z" fill="#474469"/>
<path d="M348.647 209.528C351.98 209.528 354.681 206.826 354.681 203.494C354.681 200.161 351.98 197.46 348.647 197.46C345.315 197.46 342.613 200.161 342.613 203.494C342.613 206.826 345.315 209.528 348.647 209.528Z" fill="#474469"/>
<path d="M283.322 205.973H92.8737C87.7547 205.973 83.605 210.123 83.605 215.242V321.508C83.605 326.627 87.7547 330.777 92.8737 330.777H283.322C288.441 330.777 292.591 326.627 292.591 321.508V215.242C292.591 210.123 288.441 205.973 283.322 205.973Z" fill="#79788E"/>
<path d="M292.591 222.449H83.605V313.554H292.591V222.449Z" fill="#6B24B9"/>
<path d="M83.605 222.449V313.554C83.605 313.554 270.454 297.603 274.062 222.449H83.605Z" fill="#9553F5"/>
<path d="M245.554 271.93H181.917C181.659 271.927 181.412 271.823 181.229 271.641C181.046 271.458 180.942 271.211 180.94 270.952C180.94 270.693 181.043 270.444 181.226 270.261C181.41 270.077 181.658 269.974 181.917 269.974H245.554C245.814 269.974 246.062 270.077 246.246 270.261C246.429 270.444 246.532 270.693 246.532 270.952C246.53 271.211 246.426 271.458 246.243 271.641C246.06 271.823 245.813 271.927 245.554 271.93Z" fill="#C2A0FF"/>
<path d="M245.554 277.679H181.917C181.659 277.677 181.412 277.573 181.229 277.39C181.046 277.207 180.942 276.96 180.94 276.702C180.94 276.442 181.043 276.194 181.226 276.01C181.41 275.827 181.658 275.724 181.917 275.724H245.554C245.814 275.724 246.062 275.827 246.246 276.01C246.429 276.194 246.532 276.442 246.532 276.702C246.53 276.96 246.426 277.207 246.243 277.39C246.06 277.573 245.813 277.677 245.554 277.679Z" fill="#C2A0FF"/>
<path d="M245.554 283.429H181.917C181.659 283.426 181.412 283.323 181.229 283.14C181.046 282.957 180.942 282.71 180.94 282.451C180.94 282.323 180.965 282.196 181.014 282.077C181.063 281.959 181.135 281.851 181.226 281.76C181.317 281.669 181.425 281.597 181.543 281.548C181.662 281.499 181.789 281.474 181.917 281.474H245.554C245.683 281.474 245.81 281.499 245.928 281.548C246.047 281.597 246.155 281.669 246.246 281.76C246.336 281.851 246.408 281.959 246.457 282.077C246.507 282.196 246.532 282.323 246.532 282.451C246.53 282.71 246.426 282.957 246.243 283.14C246.06 283.323 245.813 283.426 245.554 283.429Z" fill="#C2A0FF"/>
<path d="M245.554 289.178H181.917C181.659 289.176 181.412 289.072 181.229 288.889C181.046 288.707 180.942 288.459 180.94 288.201C180.94 287.942 181.043 287.693 181.226 287.51C181.41 287.326 181.658 287.223 181.917 287.223H245.554C245.814 287.223 246.062 287.326 246.246 287.51C246.429 287.693 246.532 287.942 246.532 288.201C246.53 288.459 246.426 288.707 246.243 288.889C246.06 289.072 245.813 289.176 245.554 289.178Z" fill="#C2A0FF"/>
<path d="M245.554 294.928H181.917C181.659 294.926 181.412 294.822 181.229 294.639C181.046 294.456 180.942 294.209 180.94 293.95C180.94 293.822 180.965 293.695 181.014 293.576C181.063 293.458 181.135 293.35 181.226 293.259C181.317 293.168 181.425 293.096 181.543 293.047C181.662 292.998 181.789 292.973 181.917 292.973H245.554C245.683 292.973 245.81 292.998 245.928 293.047C246.047 293.096 246.155 293.168 246.246 293.259C246.336 293.35 246.408 293.458 246.457 293.576C246.507 293.695 246.532 293.822 246.532 293.95C246.53 294.209 246.426 294.456 246.243 294.639C246.06 294.822 245.813 294.926 245.554 294.928Z" fill="#C2A0FF"/>
<path d="M188.102 377.378C213.599 377.378 234.268 372.078 234.268 365.541C234.268 359.003 213.599 353.704 188.102 353.704C162.606 353.704 141.937 359.003 141.937 365.541C141.937 372.078 162.606 377.378 188.102 377.378Z" fill="#79788E"/>
<path d="M180.833 321.792C180.833 321.792 181.491 344.959 170.471 362.457H205.724C197.541 350.591 194.273 336.016 196.607 321.792H180.833Z" fill="#79788E"/>
<path d="M174.923 353.686C174.923 353.686 193.781 347.99 195.442 330.759H180.14C179.127 338.548 177.38 346.225 174.923 353.686Z" fill="#606073"/>
<path d="M191.888 321.792C191.888 322.495 191.68 323.182 191.289 323.767C190.898 324.352 190.343 324.807 189.694 325.076C189.044 325.345 188.329 325.416 187.64 325.278C186.95 325.141 186.317 324.803 185.82 324.306C185.323 323.809 184.984 323.175 184.847 322.486C184.71 321.796 184.78 321.081 185.049 320.432C185.318 319.782 185.774 319.227 186.359 318.837C186.943 318.446 187.63 318.237 188.333 318.237C189.276 318.237 190.18 318.612 190.847 319.279C191.514 319.945 191.888 320.849 191.888 321.792Z" fill="#342F50"/>
<path d="M154.796 233.646H71.0573C68.299 233.646 66.063 235.882 66.063 238.64V280.781C66.063 283.539 68.299 285.775 71.0573 285.775H154.796C157.554 285.775 159.79 283.539 159.79 280.781V238.64C159.79 235.882 157.554 233.646 154.796 233.646Z" fill="#6B24B9"/>
<path d="M156.599 242.239H69.2529V282.442H156.599V242.239Z" fill="#C2A0FF"/>
<path d="M108.265 248.344H72.8521V249.731H108.265V248.344Z" fill="#342F50"/>
<path d="M108.265 251.668H72.8521V253.054H108.265V251.668Z" fill="#342F50"/>
<path d="M108.265 255.001H72.8521V256.387H108.265V255.001Z" fill="#342F50"/>
<path d="M108.265 258.324H72.8521V259.71H108.265V258.324Z" fill="#342F50"/>
<path d="M108.265 261.648H72.8521V263.034H108.265V261.648Z" fill="#342F50"/>
<path d="M90.563 267.611H72.8521V268.997H90.563V267.611Z" fill="#FFC154"/>
<path d="M90.563 269.93H72.8521V271.316H90.563V269.93Z" fill="#FFC154"/>
<path d="M90.563 272.241H72.8521V273.627H90.563V272.241Z" fill="#FFC154"/>
<path d="M90.563 274.56H72.8521V275.946H90.563V274.56Z" fill="#FFC154"/>
<path d="M74.1765 238.427C74.1782 238.69 74.1016 238.948 73.9564 239.167C73.8112 239.386 73.6039 239.557 73.3611 239.658C73.1183 239.759 72.8509 239.786 72.5929 239.734C72.335 239.683 72.0983 239.556 71.913 239.369C71.7276 239.182 71.6021 238.945 71.5523 238.687C71.5025 238.428 71.5307 238.161 71.6334 237.919C71.7361 237.677 71.9086 237.471 72.1288 237.327C72.3491 237.183 72.6072 237.108 72.8702 237.112C73.2167 237.117 73.5476 237.257 73.7919 237.503C74.0361 237.749 74.1742 238.08 74.1765 238.427Z" fill="#FFC154"/>
<path d="M79.7838 238.427C79.7838 238.687 79.7066 238.942 79.5621 239.158C79.4176 239.374 79.2122 239.543 78.9718 239.642C78.7315 239.742 78.4671 239.768 78.212 239.717C77.9568 239.666 77.7225 239.541 77.5385 239.357C77.3546 239.173 77.2293 238.939 77.1786 238.684C77.1278 238.429 77.1539 238.164 77.2534 237.924C77.353 237.683 77.5216 237.478 77.7378 237.334C77.9541 237.189 78.2084 237.112 78.4685 237.112C78.8174 237.112 79.1519 237.25 79.3985 237.497C79.6452 237.744 79.7838 238.078 79.7838 238.427Z" fill="#FFC154"/>
<path d="M85.4 238.427C85.4 238.687 85.3228 238.942 85.1783 239.158C85.0338 239.374 84.8284 239.543 84.5881 239.642C84.3477 239.742 84.0833 239.768 83.8282 239.717C83.573 239.666 83.3387 239.541 83.1547 239.357C82.9708 239.173 82.8456 238.939 82.7948 238.684C82.7441 238.429 82.7701 238.164 82.8696 237.924C82.9692 237.683 83.1378 237.478 83.3541 237.334C83.5703 237.189 83.8246 237.112 84.0848 237.112C84.4336 237.112 84.7681 237.25 85.0147 237.497C85.2614 237.744 85.4 238.078 85.4 238.427Z" fill="#FFC154"/>
<path d="M128.589 246.398H115.836V277.457H128.589V246.398Z" fill="#FFC154"/>
<path d="M147.162 247.234H134.41V262.759H147.162V247.234Z" fill="#342F50"/>
<path d="M147.162 264.98H134.41V276.266H147.162V264.98Z" fill="#342F50"/>
<path d="M313.403 253.517H262.803V304.117H313.403V253.517Z" stroke="#FFC154" stroke-miterlimit="10"/>
<path d="M271.92 278.817L281.571 291.249L305.156 263.301" stroke="#FFC154" stroke-width="2" stroke-miterlimit="10"/>
<path d="M230.207 364.652C230.207 367.434 219.481 369.691 206.213 369.691C192.945 369.691 182.219 367.434 182.219 364.652C182.219 361.871 192.945 359.622 206.213 359.622C219.481 359.622 230.207 361.871 230.207 364.652Z" fill="#848499"/>
<path d="M138.417 105.866H106.399V137.884H138.417V105.866Z" stroke="#C2A0FF" stroke-width="2" stroke-miterlimit="10"/>
<path d="M112.167 121.871L118.272 129.744L133.192 112.051" stroke="#C2A0FF" stroke-width="2" stroke-miterlimit="10"/>
<path d="M43.3486 135.396H22.8828C20.0313 135.396 17.7197 137.708 17.7197 140.559V190.502C17.7197 193.353 20.0313 195.665 22.8828 195.665H43.3486C46.2001 195.665 48.5117 193.353 48.5117 190.502V140.559C48.5117 137.708 46.2001 135.396 43.3486 135.396Z" fill="#6B24B9"/>
<path d="M47.2502 140.452H18.9819V189.862H47.2502V140.452Z" fill="#C2A0FF"/>
<path d="M36.6039 137.92H29.6279V138.524H36.6039V137.92Z" fill="#8050FF"/>
<path d="M35.0129 192.563C35.0129 192.94 34.9014 193.307 34.6924 193.62C34.4835 193.933 34.1865 194.176 33.839 194.32C33.4915 194.464 33.1091 194.502 32.7402 194.429C32.3713 194.355 32.0324 194.174 31.7665 193.908C31.5005 193.642 31.3194 193.303 31.246 192.934C31.1726 192.566 31.2103 192.183 31.3542 191.836C31.4982 191.488 31.7419 191.191 32.0547 190.982C32.3674 190.773 32.7351 190.662 33.1112 190.662C33.3613 190.661 33.6091 190.709 33.8404 190.804C34.0716 190.899 34.2817 191.039 34.4586 191.216C34.6354 191.393 34.7754 191.603 34.8706 191.834C34.9657 192.066 35.0141 192.313 35.0129 192.563Z" fill="#8050FF"/>
<path d="M43.793 151.454H22.4297V162.314H43.793V151.454Z" fill="#FFC154"/>
<path d="M43.2687 166.926H22.4297V167.254H43.2687V166.926Z" fill="#342F50"/>
<path d="M43.2687 168.445H22.4297V168.774H43.2687V168.445Z" fill="#342F50"/>
<path d="M43.2687 169.965H22.4297V170.294H43.2687V169.965Z" fill="#342F50"/>
<path d="M43.2687 171.484H22.4297V171.813H43.2687V171.484Z" fill="#342F50"/>
<path d="M43.2687 173.004H22.4297V173.333H43.2687V173.004Z" fill="#342F50"/>
<path d="M43.2687 174.533H22.4297V174.861H43.2687V174.533Z" fill="#342F50"/>
<path d="M43.2687 176.052H22.4297V176.381H43.2687V176.052Z" fill="#342F50"/>
<path d="M334.642 146.709H314.825C312.062 146.709 309.822 148.949 309.822 151.712V200.064C309.822 202.827 312.062 205.067 314.825 205.067H334.642C337.405 205.067 339.645 202.827 339.645 200.064V151.712C339.645 148.949 337.405 146.709 334.642 146.709Z" fill="#6B24B9"/>
<path d="M338.419 151.596H311.048V199.442H338.419V151.596Z" fill="#C2A0FF"/>
<path d="M328.111 149.152H321.357V149.739H328.111V149.152Z" fill="#8050FF"/>
<path d="M324.734 203.903C325.75 203.903 326.573 203.079 326.573 202.063C326.573 201.047 325.75 200.224 324.734 200.224C323.718 200.224 322.894 201.047 322.894 202.063C322.894 203.079 323.718 203.903 324.734 203.903Z" fill="#8050FF"/>
<path d="M321.357 160.936H314.932V190.102H321.357V160.936Z" fill="#6B24B9"/>
<path d="M334.935 163.415H325.702V172.649H334.935V163.415Z" fill="#FFC154"/>
<path d="M334.935 177.829H325.702V187.063H334.935V177.829Z" fill="#FFC154"/>
<path d="M246.398 193.994H204.489C200.347 193.994 196.989 197.352 196.989 201.494V243.404C196.989 247.546 200.347 250.904 204.489 250.904H246.398C250.54 250.904 253.898 247.546 253.898 243.404V201.494C253.898 197.352 250.54 193.994 246.398 193.994Z" fill="#6B24B9"/>
<path d="M249.411 205.298H201.485V244.861H249.411V205.298Z" fill="#C2A0FF"/>
<path d="M225.284 222.938C228.813 222.938 231.673 220.077 231.673 216.548C231.673 213.019 228.813 210.159 225.284 210.159C221.755 210.159 218.895 213.019 218.895 216.548C218.895 220.077 221.755 222.938 225.284 222.938Z" fill="#FFC154"/>
<path d="M223.053 224.111H227.879C230.445 224.111 232.907 225.13 234.722 226.945C236.537 228.76 237.556 231.222 237.556 233.788V240.622H213.385V233.788C213.385 231.223 214.403 228.763 216.216 226.948C218.029 225.134 220.488 224.113 223.053 224.111Z" fill="#FFC154"/>
<path d="M202.907 201.334C203.692 201.334 204.329 200.698 204.329 199.913C204.329 199.127 203.692 198.491 202.907 198.491C202.122 198.491 201.485 199.127 201.485 199.913C201.485 200.698 202.122 201.334 202.907 201.334Z" fill="#FFC154"/>
<path d="M209.626 199.948C209.627 200.232 209.545 200.509 209.389 200.745C209.233 200.982 209.01 201.167 208.749 201.276C208.487 201.386 208.199 201.416 207.921 201.361C207.643 201.307 207.387 201.172 207.186 200.972C206.985 200.772 206.848 200.517 206.792 200.239C206.736 199.962 206.764 199.674 206.872 199.412C206.98 199.15 207.164 198.926 207.399 198.768C207.635 198.61 207.912 198.526 208.195 198.526C208.382 198.525 208.568 198.561 208.742 198.632C208.915 198.703 209.073 198.807 209.206 198.94C209.339 199.072 209.445 199.229 209.517 199.402C209.589 199.575 209.626 199.761 209.626 199.948Z" fill="#FFC154"/>
<path d="M213.482 201.334C214.268 201.334 214.904 200.698 214.904 199.913C214.904 199.127 214.268 198.491 213.482 198.491C212.697 198.491 212.061 199.127 212.061 199.913C212.061 200.698 212.697 201.334 213.482 201.334Z" fill="#FFC154"/>
<path opacity="0.34" d="M366.483 48.8762H294.173C293.54 48.8762 293.026 49.3895 293.026 50.0226V52.7063C293.026 53.3395 293.54 53.8527 294.173 53.8527H366.483C367.116 53.8527 367.629 53.3395 367.629 52.7063V50.0226C367.629 49.3895 367.116 48.8762 366.483 48.8762Z" fill="#FFC154"/>
<path opacity="0.34" d="M366.483 59.8867H294.173C293.54 59.8867 293.026 60.4 293.026 61.0331V63.7168C293.026 64.35 293.54 64.8632 294.173 64.8632H366.483C367.116 64.8632 367.629 64.35 367.629 63.7168V61.0331C367.629 60.4 367.116 59.8867 366.483 59.8867Z" fill="#FFC154"/>
<path opacity="0.34" d="M366.474 70.8972H314.55C313.917 70.8972 313.403 71.4104 313.403 72.0435V74.7273C313.403 75.3604 313.917 75.8736 314.55 75.8736H366.474C367.107 75.8736 367.62 75.3604 367.62 74.7273V72.0435C367.62 71.4104 367.107 70.8972 366.474 70.8972Z" fill="#FFC154"/>
<path opacity="0.34" d="M366.474 81.721H306.303C305.669 81.721 305.156 82.2343 305.156 82.8674V85.7289C305.156 86.362 305.669 86.8752 306.303 86.8752H366.474C367.107 86.8752 367.62 86.362 367.62 85.7289V82.8674C367.62 82.2343 367.107 81.721 366.474 81.721Z" fill="#FFC154"/>
<path opacity="0.34" d="M366.483 92.9092H294.173C293.54 92.9092 293.026 93.4225 293.026 94.0556V96.7394C293.026 97.3725 293.54 97.8857 294.173 97.8857H366.483C367.116 97.8857 367.629 97.3725 367.629 96.7394V94.0556C367.629 93.4225 367.116 92.9092 366.483 92.9092Z" fill="#FFC154"/>
<path opacity="0.34" d="M64.7478 321.881H29.7435C29.1104 321.881 28.5972 322.394 28.5972 323.027V323.223C28.5972 323.856 29.1104 324.369 29.7435 324.369H64.7478C65.3809 324.369 65.8942 323.856 65.8942 323.223V323.027C65.8942 322.394 65.3809 321.881 64.7478 321.881Z" fill="#C2A0FF"/>
<path opacity="0.34" d="M64.7478 327.391H29.7435C29.1104 327.391 28.5972 327.904 28.5972 328.537V328.733C28.5972 329.366 29.1104 329.879 29.7435 329.879H64.7478C65.3809 329.879 65.8942 329.366 65.8942 328.733V328.537C65.8942 327.904 65.3809 327.391 64.7478 327.391Z" fill="#C2A0FF"/>
<path opacity="0.34" d="M58.1451 335.38H29.708C29.4031 335.38 29.1106 335.259 28.8942 335.044C28.6778 334.83 28.5551 334.538 28.5527 334.233C28.5527 333.927 28.6744 333.633 28.8911 333.416C29.1078 333.2 29.4016 333.078 29.708 333.078H58.1451C58.4499 333.08 58.7415 333.203 58.9562 333.42C59.1709 333.636 59.2914 333.928 59.2914 334.233C59.2914 334.384 59.2618 334.533 59.2042 334.672C59.1466 334.811 59.0621 334.937 58.9557 335.044C58.8492 335.15 58.7228 335.235 58.5838 335.292C58.4447 335.35 58.2956 335.38 58.1451 335.38Z" fill="#C2A0FF"/>
<path opacity="0.34" d="M64.7478 338.392H29.7435C29.1104 338.392 28.5972 338.906 28.5972 339.539V339.734C28.5972 340.367 29.1104 340.881 29.7435 340.881H64.7478C65.3809 340.881 65.8942 340.367 65.8942 339.734V339.539C65.8942 338.906 65.3809 338.392 64.7478 338.392Z" fill="#C2A0FF"/>
<path opacity="0.34" d="M64.7478 343.902H29.7435C29.1104 343.902 28.5972 344.415 28.5972 345.048V345.244C28.5972 345.877 29.1104 346.39 29.7435 346.39H64.7478C65.3809 346.39 65.8942 345.877 65.8942 345.244V345.048C65.8942 344.415 65.3809 343.902 64.7478 343.902Z" fill="#C2A0FF"/>
</g>
</svg>
