<svg width="3996" height="3174" viewBox="0 0 3996 3174" fill="none" xmlns="http://www.w3.org/2000/svg">
<g opacity="0.09">
<path d="M228.676 1077.61C509.022 1327.58 924.608 1392.01 1075.93 1415.65C1606.66 1498.27 1887.78 1328.6 2154.7 1588.28C2411.98 1838.51 2266.24 2096.55 2520.27 2532.1C2679.92 2805.92 3113.15 3072.86 3396.09 3142L3798.97 1875.81C3516.12 1918.44 3102.9 2246.18 2804.16 2011.56C2561.49 1821.06 2667.85 1630.53 2428.95 1269.89C2049.34 696.851 1488.17 1028.39 965.714 468.74C843.518 337.937 760.736 188.934 698.235 45.537L228.676 1077.61Z" fill="url(#paint0_linear_280_2)"/>
<mask id="mask0_280_2" style="mask-type:luminance" maskUnits="userSpaceOnUse" x="1048" y="412" width="2758" height="1931">
<path d="M3577.71 2342.97L3805.34 780.541L1275.72 412L1048.09 1974.43L3577.71 2342.97Z" fill="white"/>
</mask>
<g mask="url(#mask0_280_2)">
<path d="M246.938 1096.58C527.283 1346.55 942.869 1410.98 1094.2 1434.62C1624.93 1517.24 1906.05 1347.57 2172.96 1607.25C2430.24 1857.48 2284.51 2115.52 2538.53 2551.07C2698.18 2824.89 2984.16 3034.69 3267.11 3103.83L3817.23 1894.77C3534.38 1937.41 3121.16 2265.15 2822.42 2030.53C2579.75 1840.03 2686.11 1649.49 2447.21 1288.85C2067.6 715.82 1506.43 1047.36 983.976 487.708C861.78 356.906 778.997 207.903 716.496 64.5052L246.938 1096.58Z" fill="url(#paint1_linear_280_2)"/>
<path style="mix-blend-mode:multiply" d="M3967.56 1563.98C3543.43 1645.05 2841.94 2154.76 2377.46 1780.87C2117.58 1572.05 2189.89 969.706 1785.64 427.89C1722.69 343.533 1371.37 -10.8662 817.831 -158.304L498.212 545.132C705.573 508.638 920.715 512.506 1084.77 659.389C1378.32 922.324 1162.84 1334.09 1488.82 1718.02C1802.4 2087.42 2127.03 1853.77 2663.43 2220.99C3045.54 2482.78 3179.5 2806.31 3312.38 3004.67L3967.56 1563.98Z" fill="url(#paint2_linear_280_2)"/>
<path style="mix-blend-mode:multiply" d="M3676.49 2203.99C3292.57 2194.62 2649.06 2272.97 2145.8 1812.32C1877.81 1566.89 1977.97 1469.02 1622.08 1100.35C1321.81 789.783 895.107 490.927 556.229 416.906L270.179 1045.54C547.168 1058.86 1000.71 951.153 1402.04 1244.99C1763.98 1509.76 1641.95 1778.41 2056.8 2064.85C2446.75 2333.7 2600.79 2128.11 3006.66 2417.83C3171.37 2534.69 3301.88 2680.04 3405.92 2798.57L3676.49 2203.99Z" fill="url(#paint3_linear_280_2)"/>
</g>
</g>
<defs>
<linearGradient id="paint0_linear_280_2" x1="3512.76" y1="2504.7" x2="253.82" y2="1022.15" gradientUnits="userSpaceOnUse">
<stop stop-color="#C07CFF"/>
<stop offset="1" stop-color="#9DF2CA"/>
</linearGradient>
<!-- <linearGradient id="paint1_linear_280_2" x1="3531.02" y1="2523.67" x2="272.081" y2="1041.12" gradientUnits="userSpaceOnUse">
<stop stop-color="#C07CFF"/>
<stop offset="1" stop-color="#9DF2CA"/>
</linearGradient> -->
<!-- <linearGradient id="paint2_linear_280_2" x1="581.54" y1="361.087" x2="3840.42" y2="1843.61" gradientUnits="userSpaceOnUse">
<stop stop-color="#C07CFF"/>
<stop offset="1" stop-color="#9DF2CA"/>
</linearGradient> -->
<!-- <linearGradient id="paint3_linear_280_2" x1="4372.93" y1="1342.61" x2="947.273" y2="1426.86" gradientUnits="userSpaceOnUse">
<stop stop-color="#C07CFF"/>
<stop offset="1" stop-color="#9DF2CA"/>
</linearGradient> -->
</defs>
</svg>
