<svg width="3169" height="2609" viewBox="0 0 3169 2609" fill="none" xmlns="http://www.w3.org/2000/svg">
<g opacity="0.07">
<path d="M56.988 1537.54C282.291 1351.28 628.77 1301.31 755.331 1282.85C1198.29 1218.55 1441.83 1342.16 1655.45 1148.88C1861.29 962.519 1727.9 772.898 1923.21 449.788C2045.99 246.686 2277.71 90.0115 2512.82 37.3387L3026.21 926.554C2786.59 896.871 2425.29 657.37 2183.83 832.377C1987.75 974.465 2085.2 1114.58 1899.55 1382.43C1604.32 1807.76 1118.42 1566.37 702.493 1982.72C605.263 2080.02 542.062 2190.86 495.346 2296.8L56.988 1537.54Z" fill="url(#paint0_linear_280_14)"/>
<path style="mix-blend-mode:multiply" d="M3166.9 1170.24C2806.79 1112.98 2195.35 740.978 1819.97 1019.66C1610.2 1175.64 1696.35 1619.89 1379.09 2022.33C1329.72 2084.96 1049.1 2348.74 589.744 2460.94L291.397 1944.19C467.359 1969.88 648.075 1965.72 779.962 1856.29C1016.25 1660.22 817.651 1357.66 1075.56 1072.23C1323.69 797.283 1607.06 967.736 2042.49 693.341C2352.9 497.743 2451.95 258.148 2555.42 111.137L3166.9 1170.24Z" fill="url(#paint1_linear_280_14)"/>
<path style="mix-blend-mode:multiply" d="M2897.2 699.674C2574.63 708.857 2030.12 654.941 1626.38 998.093C1411.23 1180.91 1499.59 1252.55 1215.78 1526.89C976.207 1758.35 629.53 1980.98 347.88 2037.95L80.954 1575.62C313.409 1564.07 699.281 1640.79 1024.53 1421.5C1318.01 1223.5 1203.91 1026.2 1540.83 812.467C1857.68 611.467 1995.73 762.482 2325.07 545.981C2458.36 458.417 2562.2 350.579 2644.55 262.077L2897.2 699.674Z" fill="url(#paint2_linear_280_14)"/>
</g>
<defs>
<linearGradient id="paint0_linear_280_14" x1="2758.96" y1="463.673" x2="267.482" y2="1902.13" gradientUnits="userSpaceOnUse">
<stop stop-color="#C07CFF"/>
<stop offset="1" stop-color="#F9575C"/>
</linearGradient>
<linearGradient id="paint1_linear_280_14" x1="369.659" y1="2079.11" x2="2861.14" y2="640.649" gradientUnits="userSpaceOnUse">
<stop stop-color="#C07CFF"/>
<stop offset="1" stop-color="#9DF2CA10"/>
</linearGradient>
<linearGradient id="paint2_linear_280_14" x1="3519.08" y1="1331.24" x2="638.001" y2="1414.54" gradientUnits="userSpaceOnUse">
<stop stop-color="#C07CFF"/>
<stop offset="1" stop-color="#F9575C"/>
</linearGradient>
</defs>
</svg>
